HIERARCHY
ROOT Hips
{
	OFFSET 0.000000 0.000000 0.000000 
	CHANNELS 6 Xposition Yposition Zposition Yrotation Zrotation Xrotation 
	JOINT Lumbar
	{
		OFFSET 0.000000 0.000000 0.000000 
		CHANNELS 3 Zrotation Xrotation Yrotation
		JOINT Neck
		{
			OFFSET 0.000000 0.445665 0.000000 
			CHANNELS 3 Zrotation Xrotation Yrotation
			End Site
			{
				OFFSET 0.000000 0.227535 0.000000 
			}
		}
		JOINT RightShoulder
		{
			OFFSET 0.019635 0.377685 0.194865 
			CHANNELS 3 Zrotation Xrotation Yrotation
			JOINT RightElbow
			{
				OFFSET 0.000000 -0.243375 0.000000 
				CHANNELS 2 Zrotation Yrotation
				JOINT RightWrist
				{
					OFFSET 0.000000 -0.264825 0.000000 
					CHANNELS 2 Zrotation Xrotation
					End Site
					{
						OFFSET 0.006600 -0.176220 0.000990 
					}
				}
			}
		}
		JOINT LeftShoulder
		{
			OFFSET 0.019635 0.377685 -0.194865 
			CHANNELS 3 Zrotation Xrotation Yrotation
			JOINT LeftElbow
			{
				OFFSET 0.000000 -0.243375 0.000000 
				CHANNELS 2 Zrotation Yrotation
				JOINT LeftWrist
				{
					OFFSET 0.000000 -0.264825 0.000000 
					CHANNELS 2 Zrotation Xrotation
					End Site
					{
						OFFSET 0.006600 -0.176220 -0.000990 
					}
				}
			}
		}
	}
	JOINT RightHip
	{
		OFFSET 0.052140 -0.069960 0.075570 
		CHANNELS 3 Zrotation Xrotation Yrotation
		JOINT RightKnee
		{
			OFFSET 0.000000 -0.402270 0.000000 
			CHANNELS 1 Zrotation
			JOINT RightAnkle
			{
				OFFSET 0.000000 -0.404085 0.000000 
				CHANNELS 3 Zrotation Xrotation Yrotation
				End Site
				{
					OFFSET 0.204105 -0.089430 0.008415 
				}
			}
		}
	}
	JOINT LeftHip
	{
		OFFSET 0.052140 -0.069960 -0.075570 
		CHANNELS 3 Zrotation Xrotation Yrotation
		JOINT LeftKnee
		{
			OFFSET 0.000000 -0.402270 0.000000 
			CHANNELS 1 Zrotation
			JOINT LeftAnkle
			{
				OFFSET 0.000000 -0.404085 0.000000 
				CHANNELS 3 Zrotation Xrotation Yrotation
				End Site
				{
					OFFSET 0.204105 -0.089430 -0.008415 
				}
			}
		}
	}
}
MOTION
Frames: 14
Frame Time: 0.02
0.00042 5e-05 5e-05 -175.23874 -40.28102 -0.89823 50.19705 1.56788 -5.52674 0.69134 -0.67025 -0.43794 -19.44185 -10.52143 7.86444 35.15396 96.72282 9.0766 0.86211 -22.54756 19.6743 -28.67856 48.33847 -73.81873 4.58275 3.66391 41.98177 -0.05885 -4.18947 -18.95861 -6.04325 -3.27839 -2.2992 46.07869 2.96431 4.67424 -24.60692 -6.39159 2.21484 1.764
0.00067 8e-05 0.00018 -175.24365 -40.2777 -0.90865 50.17521 1.57027 -5.49356 0.68502 -0.65743 -0.43803 -19.48048 -10.5095 7.91187 35.13515 96.76446 9.12088 0.86491 -22.78249 18.50707 -26.21879 48.35651 -80.17332 6.7527 2.68709 41.99342 -0.0797 -4.30589 -18.96045 -6.04262 -3.25939 -2.28923 46.09326 2.944 4.58083 -24.60951 -6.39112 2.22271 1.76834
0.00091 0.00011 0.0003 -175.24854 -40.27438 -0.91905 50.15341 1.57267 -5.46046 0.67875 -0.64465 -0.43812 -19.519 -10.4976 7.95911 35.11643 96.8059 9.16497 0.86771 -23.01646 17.34481 -23.76958 48.37452 -86.50054 8.9133 1.71448 42.00505 -0.10043 -4.42162 -18.9623 -6.042 -3.24048 -2.27932 46.10782 2.92379 4.48779 -24.6121 -6.39065 2.23054 1.77265
0.00116 0.00013 0.00043 -175.25343 -40.27107 -0.92945 50.13163 1.57506 -5.42739 0.67245 -0.63187 -0.43821 -19.55751 -10.4857 8.00639 35.09768 96.84738 9.2091 0.8705 -23.25061 16.18147 -21.31804 48.3925 -92.8338 11.07596 0.74094 42.01666 -0.12121 -4.53761 -18.96414 -6.04137 -3.22155 -2.26938 46.12235 2.90355 4.3947 -24.61469 -6.39019 2.23838 1.77697
0.0014 0.00016 0.00055 -175.25834 -40.26775 -0.93985 50.10983 1.57745 -5.39423 0.66612 -0.61907 -0.43829 -19.59613 -10.47379 8.05387 35.07885 96.88916 9.25344 0.87331 -23.48587 15.01245 -18.85436 48.41051 -99.19868 13.24945 -0.23746 42.02827 -0.14214 -4.65445 -18.96598 -6.04073 -3.20252 -2.25938 46.1369 2.88321 4.30119 -24.61725 -6.38971 2.24627 1.78131
0.00165 0.00018 0.00067 -175.26321 -40.26444 -0.95026 50.08802 1.57987 -5.36126 0.65997 -0.60631 -0.43838 -19.63444 -10.46191 8.1006 35.06037 96.9299 9.29703 0.87608 -23.71712 13.86433 -16.43539 48.42852 -105.44722 15.38311 -1.19799 42.03994 -0.16247 -4.76787 -18.96782 -6.04014 -3.18388 -2.24965 46.15148 2.86327 4.20911 -24.61991 -6.38927 2.254 1.78556
0.00189 0.00021 0.0008 -175.26815 -40.26111 -0.96064 50.06626 1.58223 -5.32798 0.6534 -0.59349 -0.43847 -19.67332 -10.44997 8.14878 35.04116 96.97253 9.34202 0.87892 -23.95604 12.67605 -13.93055 48.44649 -111.91887 17.59316 -2.1928 42.05147 -0.18396 -4.88792 -18.96966 -6.03945 -3.16447 -2.2394 46.16595 2.84254 4.11434 -24.62238 -6.38875 2.26202 1.78998
0.00213 0.00024 0.00092 -175.27303 -40.25783 -0.97105 50.04442 1.58464 -5.29494 0.64735 -0.5807 -0.43855 -19.71171 -10.43812 8.19566 35.02269 97.01372 9.38584 0.88172 -24.18814 11.52367 -11.50231 48.46456 -118.19227 19.73534 -3.1571 42.06317 -0.20442 -5.00212 -18.9715 -6.03885 -3.14575 -2.2296 46.18057 2.82253 4.0219 -24.62503 -6.38831 2.26979 1.79426
0.00238 0.00026 0.00105 -175.2778 -40.25449 -0.98151 50.02263 1.58712 -5.26233 0.64143 -0.56805 -0.43864 -19.74938 -10.42623 8.2408 35.00485 97.05193 9.42774 0.88434 -24.41095 10.41943 -9.1775 48.48249 -124.19482 21.78476 -4.07991 42.07492 -0.22346 -5.10808 -18.97334 -6.03837 -3.12799 -2.22045 46.19519 2.80345 3.93288 -24.62785 -6.38795 2.27719 1.79831
0.00262 0.00029 0.00117 -175.28309 -40.25113 -0.99172 50.00097 1.58921 -5.22767 0.63324 -0.55488 -0.43872 -19.79081 -10.41409 8.29552 34.98259 97.10362 9.47923 0.8876 -24.68438 9.05101 -6.28703 48.50042 -131.67008 24.33842 -5.22884 42.0859 -0.25018 -5.25816 -18.97518 -6.03722 -3.10506 -2.20785 46.20929 2.77917 3.82589 -24.62957 -6.3871 2.28654 1.80354
0.00287 0.00031 0.00129 -175.28737 -40.24805 -1.00242 49.9788 1.59214 -5.19709 0.63077 -0.54265 -0.43882 -19.82454 -10.40281 8.33028 34.97016 97.12924 9.51141 0.88979 -24.85283 8.23169 -4.57103 48.51886 -136.09329 25.84719 -5.90881 42.09879 -0.26101 -5.31728 -18.97705 -6.03748 -3.0928 -2.20236 46.22481 2.76577 3.75576 -24.63369 -6.38728 2.29188 1.80633
0.00312 0.00035 0.0014 -175.28801 -40.24373 -1.01462 49.95688 1.59733 -5.17985 0.63664 -0.53428 -0.43898 -19.83514 -10.39056 8.30576 34.98076 97.0711 9.48462 0.88784 -24.71535 9.00329 -6.26799 48.53469 -131.59692 24.30121 -5.22136 42.1148 -0.22508 -5.10674 -18.97874 -6.04178 -3.11198 -2.21799 46.24166 2.78327 3.79623 -24.64362 -6.39038 2.28542 1.80193
0.00338 0.00038 0.0015 -175.28776 -40.24007 -1.02727 49.93411 1.60339 -5.16638 0.64965 -0.52655 -0.43917 -19.83847 -10.37942 8.26074 35.00194 96.99462 9.44096 0.8859 -24.47578 10.31138 -9.11049 48.55185 -124.13091 21.73859 -4.07721 42.13316 -0.17373 -4.80849 -18.98051 -6.04746 -3.14147 -2.24047 46.26044 2.8115 3.87193 -24.65608 -6.3945 2.2751 1.79518
0.00364 0.00042 0.0016 -175.28856 -40.23736 -1.03959 49.91067 1.60909 -5.14972 0.66415 -0.51775 -0.43934 -19.84634 -10.37039 8.2297 35.02091 96.92741 9.40714 0.88361 -24.2946 11.31809 -11.30276 48.57092 -118.3869 19.76639 -3.19557 42.15182 -0.1315 -4.56354 -18.98242 -6.05237 -3.16484 -2.25877 46.28 2.83414 3.9254 -24.66794 -6.39809 2.26708 1.78985
